<svg width="32" height="32" viewBox="0 0 32 32" fill="none" xmlns="http://www.w3.org/2000/svg">
<rect width="32" height="32" rx="12" fill="#32A7E2"/>
<path d="M16 8C20.424 8 24 11.5848 24 16C24 20.4168 20.424 24 16 24C11.584 24 8 20.4168 8 16C8 11.5848 11.584 8 16 8ZM16 18.3448C15.616 18.3448 15.304 18.6568 15.304 19.0408C15.304 19.4248 15.616 19.7448 16.008 19.7448C16.392 19.7448 16.704 19.4248 16.704 19.0408C16.704 18.6568 16.392 18.3448 16 18.3448ZM16 12.264C15.616 12.264 15.296 12.5848 15.296 12.968V16.504C15.296 16.8888 15.616 17.2 16 17.2C16.384 17.2 16.696 16.8888 16.696 16.504V12.968C16.696 12.5848 16.384 12.264 16 12.264Z" fill="white"/>
</svg>
