<svg width="34" height="35" viewBox="0 0 34 35" fill="none" xmlns="http://www.w3.org/2000/svg">
<g filter="url(#filter0_d_44_649)">
<rect x="1" width="32" height="32" rx="12" fill="#EC4F3C"/>
</g>
<path d="M16.6618 9.33333C18.3168 9.33333 19.6666 10.66 19.6666 12.2933V15.4867H15.5969C15.3052 15.4867 15.0746 15.7133 15.0746 16C15.0746 16.28 15.3052 16.5133 15.5969 16.5133H19.6666V19.7C19.6666 21.3333 18.3168 22.6667 16.6482 22.6667H13.3449C11.6831 22.6667 10.3333 21.34 10.3333 19.7067V12.3C10.3333 10.66 11.6899 9.33333 13.3517 9.33333H16.6618ZM21.3601 13.7001C21.5601 13.4935 21.8868 13.4935 22.0868 13.6935L24.0334 15.6335C24.1334 15.7335 24.1868 15.8601 24.1868 16.0001C24.1868 16.1335 24.1334 16.2668 24.0334 16.3601L22.0868 18.3001C21.9868 18.4001 21.8534 18.4535 21.7268 18.4535C21.5934 18.4535 21.4601 18.4001 21.3601 18.3001C21.1601 18.1001 21.1601 17.7735 21.3601 17.5735L22.4268 16.5135H19.6668V15.4868H22.4268L21.3601 14.4268C21.1601 14.2268 21.1601 13.9001 21.3601 13.7001Z" fill="white"/>
<defs>
<filter id="filter0_d_44_649" x="0" y="0" width="34" height="35" filterUnits="userSpaceOnUse" color-interpolation-filters="sRGB">
<feFlood flood-opacity="0" result="BackgroundImageFix"/>
<feColorMatrix in="SourceAlpha" type="matrix" values="0 0 0 0 0 0 0 0 0 0 0 0 0 0 0 0 0 0 127 0" result="hardAlpha"/>
<feOffset dy="2"/>
<feGaussianBlur stdDeviation="0.5"/>
<feColorMatrix type="matrix" values="0 0 0 0 0.25098 0 0 0 0 0.282353 0 0 0 0 0.321569 0 0 0 0.05 0"/>
<feBlend mode="normal" in2="BackgroundImageFix" result="effect1_dropShadow_44_649"/>
<feBlend mode="normal" in="SourceGraphic" in2="effect1_dropShadow_44_649" result="shape"/>
</filter>
</defs>
</svg>
